Coordinates
version=1
nRows=8
nColumns=35
inDegrees=yes

Units are S.I. units (second, meters, Newtons, ...)
If the header above contains a line with 'inDegrees', this indicates whether rotational values are in degrees (yes) or radians (no).

endheader
time	sternoclavicular_r2	sternoclavicular_r3	unrotscap_r3	unrotscap_r2	acromioclavicular_r2	acromioclavicular_r3	acromioclavicular_r1	unrothum_r1	unrothum_r3	unrothum_r2	elv_angle	shoulder_elv	shoulder1_r2	shoulder_rot	elbow_flexion	pro_sup	deviation	flexion	proximal_distal_r1	proximal_distal_r3	cmc_flexion	cmc_abduction	mp_flexion	ip_flexion	2mcp_flexion	2mcp_abduction	2pm_flexion	2md_flexion	FPLpt_tx	FPLpt_ty	FPLpt_tz	FPLpt2_tx	FPLpt2_ty	FPLpt2_tz
      1.39000000	     -6.65930637	      2.82056787	     -2.82056787	      6.65930637	     -1.34837408	     10.89708500	      4.89816471	     -4.89816471	    -10.89708500	      1.34837408	     15.89225238	     27.51773323	    -15.89225238	      7.34156643	     78.71352232	     41.37175238	      0.21234849	      0.03726096	     14.39721282	      1.06744778	      3.36700001	     10.53133754	    -27.65299999	    -34.18399999	     -0.18517803	      7.65299997	     26.93900001	     34.89800000	     -0.00005029	     -0.00015086	     -0.00008486	      0.00004241	     -0.00007788	     -0.00009345
      1.40000000	     -6.66490957	      2.82294113	     -2.82294113	      6.66490957	     -1.34950861	     10.90625392	      4.90228608	     -4.90228608	    -10.90625392	      1.34950861	     15.98854914	     27.54088692	    -15.98854914	      7.40857270	     78.62233781	     41.88748718	      0.21704940	      0.03006503	     14.66808666	      0.86129964	      3.36700001	     10.64740714	    -27.65299999	    -34.18399999	     -0.30532963	      7.65299997	     26.93900001	     34.89800000	     -0.00004033	     -0.00012100	     -0.00006806	      0.00004241	     -0.00007788	     -0.00009345
      1.41000000	     -6.66669132	      2.82369579	     -2.82369579	      6.66669132	     -1.34986938	     10.90916951	      4.90359662	     -4.90359662	    -10.90916951	      1.34986938	     15.97829650	     27.54824948	    -15.97829650	      7.42666512	     78.63640879	     41.89537541	      0.22171103	      0.02944268	     14.93468976	      0.84347073	      3.36700001	     10.94247192	    -27.65299999	    -34.18399999	     -0.63443037	      7.65299997	     26.93900001	     34.89800000	     -0.00003948	     -0.00011844	     -0.00006662	      0.00004241	     -0.00007788	     -0.00009345
      1.42000000	     -6.67200904	      2.82594813	     -2.82594813	      6.67200904	     -1.35094611	     10.91787127	      4.90750800	     -4.90750800	    -10.91787127	      1.35094611	     15.97817321	     27.57022349	    -15.97817321	      7.44941389	     78.60192598	     41.85972431	      0.22081205	      0.02924797	     14.88341261	      0.83789253	      3.36700001	     10.80835603	    -27.65299999	    -34.18399999	     -0.62033031	      7.65299997	     26.93900001	     34.89800000	     -0.00003922	     -0.00011766	     -0.00006618	      0.00004241	     -0.00007788	     -0.00009345
      1.43000000	     -6.66848738	      2.82445652	     -2.82445652	      6.66848738	     -1.35023305	     10.91210853	      4.90491768	     -4.90491768	    -10.91210853	      1.35023305	     15.93794859	     27.55567120	    -15.93794859	      7.47596200	     78.59308176	     41.39283426	      0.21071796	      0.02585880	     14.30278108	      0.74080009	      3.36700001	     10.83289478	    -27.65299999	    -34.18399999	      0.11030797	      7.65299997	     26.93900001	     34.89800000	     -0.00003454	     -0.00010362	     -0.00005829	      0.00004241	     -0.00007788	     -0.00009345
      1.44000000	     -6.66223238	      2.82180719	     -2.82180719	      6.66223238	     -1.34896654	     10.90187303	      4.90031690	     -4.90031690	    -10.90187303	      1.34896654	     15.91049219	     27.52982414	    -15.91049219	      7.43103704	     78.63099210	     41.38468968	      0.20956895	      0.02805567	     14.23609458	      0.80373566	      3.36700001	     10.73546940	    -27.65299999	    -34.18399999	      0.20659452	      7.65299997	     26.93900001	     34.89800000	     -0.00003759	     -0.00011276	     -0.00006343	      0.00004241	     -0.00007788	     -0.00009345
      1.45000000	     -6.65484314	      2.81867746	     -2.81867746	      6.65484314	     -1.34747036	     10.88978151	      4.89488184	     -4.89488184	    -10.88978151	      1.34747036	     16.05613595	     27.49929016	    -16.05613595	      7.40170535	     78.58792538	     41.44324062	      0.21017952	      0.02766862	     14.27153731	      0.79264746	      3.36700001	     10.71812206	    -27.65299999	    -34.18399999	      0.21268435	      7.65299997	     26.93900001	     34.89800000	     -0.00003706	     -0.00011117	     -0.00006253	      0.00004241	     -0.00007788	     -0.00009345
      1.46000000	     -6.65421775	      2.81841258	     -2.81841258	      6.65421775	     -1.34734374	     10.88875815	      4.89442185	     -4.89442185	    -10.88875815	      1.34734374	     16.04040712	     27.49670594	    -16.04040712	      7.39607717	     78.65743267	     41.88021525	      0.21577861	      0.02945269	     14.59506425	      0.84375734	      3.36700001	     10.61339669	    -27.65299999	    -34.18399999	      0.30483388	      7.65299997	     26.93900001	     34.89800000	     -0.00003950	     -0.00011850	     -0.00006666	      0.00004241	     -0.00007788	     -0.00009345
